<svg width="139" height="30" viewBox="0 0 139 30" fill="none" xmlns="http://www.w3.org/2000/svg">
<path d="M131.982 29.3996V24.0996H118.742V20.7196L128.242 0.599609H132.282L122.782 20.7196H131.982V12.6196H135.582V20.7196H138.582V24.0996H135.582V29.3996H131.982Z" fill="#007BFB"/>
<path d="M97.5938 29.38L97.6137 26.18L110.394 14.68C111.46 13.72 112.174 12.8133 112.534 11.96C112.907 11.0933 113.094 10.2067 113.094 9.3C113.094 8.19333 112.84 7.19333 112.334 6.3C111.827 5.40667 111.134 4.7 110.254 4.18C109.387 3.66 108.4 3.4 107.294 3.4C106.147 3.4 105.127 3.67333 104.234 4.22C103.34 4.75333 102.634 5.46667 102.114 6.36C101.607 7.25333 101.36 8.22667 101.374 9.28H97.7337C97.7337 7.46667 98.1538 5.86667 98.9938 4.48C99.8338 3.08 100.974 1.98667 102.414 1.2C103.867 0.4 105.514 0 107.354 0C109.14 0 110.74 0.413333 112.154 1.24C113.567 2.05333 114.68 3.16666 115.494 4.58C116.32 5.98 116.734 7.56667 116.734 9.34C116.734 10.5933 116.574 11.68 116.254 12.6C115.947 13.52 115.467 14.3733 114.814 15.16C114.16 15.9333 113.34 16.76 112.354 17.64L101.734 27.18L101.274 25.98H116.734V29.38H97.5938Z" fill="#007BFB"/>
<path d="M71.7734 29.3996L81.4134 0.599609H86.3734L96.0134 29.3996H92.3134L83.2934 2.67961H84.4134L75.4734 29.3996H71.7734ZM76.4134 22.6596V19.3196H91.3734V22.6596H76.4134Z" fill="#007BFB"/>
<path d="M59.9478 30C57.9745 30 56.2545 29.7133 54.7878 29.14C53.3345 28.5533 52.1278 27.7933 51.1678 26.86C50.2211 25.9133 49.5011 24.9 49.0078 23.82L52.1678 21.86C52.4878 22.7 52.9811 23.48 53.6478 24.2C54.3278 24.92 55.1945 25.5 56.2478 25.94C57.3145 26.38 58.5945 26.6 60.0878 26.6C61.6078 26.6 62.8811 26.3667 63.9078 25.9C64.9345 25.42 65.7011 24.7733 66.2078 23.96C66.7278 23.1333 66.9878 22.1867 66.9878 21.12C66.9878 19.9067 66.6878 18.9733 66.0878 18.32C65.4878 17.6533 64.6811 17.1867 63.6678 16.92C62.6678 16.64 61.5611 16.48 60.3478 16.44C59.4011 16.4 58.7211 16.3733 58.3078 16.36C57.8945 16.3467 57.6145 16.34 57.4678 16.34C57.3345 16.34 57.2078 16.34 57.0878 16.34V12.94C57.2078 12.94 57.4611 12.94 57.8478 12.94C58.2345 12.94 58.6411 12.94 59.0678 12.94C59.4945 12.9267 59.8345 12.9133 60.0878 12.9C61.8745 12.8067 63.2945 12.3533 64.3478 11.54C65.4011 10.7133 65.9278 9.58 65.9278 8.14C65.9278 6.64667 65.3878 5.48 64.3078 4.64C63.2411 3.8 61.8478 3.38 60.1278 3.38C58.5011 3.38 57.1145 3.76 55.9678 4.52C54.8345 5.28 53.9278 6.26 53.2478 7.46L50.5078 5.12C51.4411 3.64 52.7345 2.42 54.3878 1.46C56.0545 0.486666 58.0011 0 60.2278 0C61.4545 0 62.6345 0.166667 63.7678 0.5C64.9145 0.819999 65.9278 1.31333 66.8078 1.98C67.7011 2.63333 68.4078 3.46667 68.9278 4.48C69.4478 5.48 69.7078 6.66667 69.7078 8.04C69.7078 9.52 69.3945 10.8333 68.7678 11.98C68.1411 13.1267 67.3211 14.0133 66.3078 14.64C67.7078 15.1067 68.8011 15.88 69.5878 16.96C70.3745 18.04 70.7678 19.44 70.7678 21.16C70.7678 22.96 70.3078 24.52 69.3878 25.84C68.4811 27.16 67.2145 28.1867 65.5878 28.92C63.9611 29.64 62.0811 30 59.9478 30Z" fill="#007BFB"/>
<path d="M46.0091 29.3996H42.4091V6.87961L27.3891 29.3996H23.7891V0.599609H27.3891V23.0996L42.4091 0.599609H46.0091V29.3996Z" fill="#007BFB"/>
<path d="M0.226562 29.3996V0.599609H11.4466C13.1666 0.599609 14.6332 0.952943 15.8466 1.65961C17.0732 2.36628 18.0066 3.29961 18.6466 4.45961C19.2999 5.60628 19.6266 6.84628 19.6266 8.17961C19.6266 9.73961 19.2266 11.1063 18.4266 12.2796C17.6266 13.4529 16.5466 14.2596 15.1866 14.6996L15.1466 13.7196C16.9999 14.2129 18.4399 15.1196 19.4666 16.4396C20.4932 17.7596 21.0066 19.3329 21.0066 21.1596C21.0066 22.8396 20.6599 24.2929 19.9666 25.5196C19.2866 26.7463 18.2999 27.6996 17.0066 28.3796C15.7266 29.0596 14.2066 29.3996 12.4466 29.3996H0.226562ZM3.82656 25.9996H11.7666C12.8332 25.9996 13.7866 25.8063 14.6266 25.4196C15.4666 25.0196 16.1266 24.4596 16.6066 23.7396C17.0999 23.0196 17.3466 22.1529 17.3466 21.1396C17.3466 20.1663 17.1266 19.2929 16.6866 18.5196C16.2599 17.7463 15.6532 17.1329 14.8666 16.6796C14.0932 16.2129 13.1932 15.9796 12.1666 15.9796H3.82656V25.9996ZM3.82656 12.6196H11.4066C12.2599 12.6196 13.0266 12.4396 13.7066 12.0796C14.3999 11.7063 14.9466 11.1863 15.3466 10.5196C15.7599 9.85294 15.9666 9.07294 15.9666 8.17961C15.9666 6.93961 15.5466 5.92628 14.7066 5.13961C13.8666 4.35294 12.7666 3.95961 11.4066 3.95961H3.82656V12.6196Z" fill="#007BFB"/>
</svg>
